<svg xmlns="http://www.w3.org/2000/svg" viewBox="0 0 400 160" fill="none">
  <defs>
    <linearGradient id="cloudGrad" x1="0%" y1="0%" x2="0%" y2="100%">
      <stop offset="0%" style="stop-color:#7EC8E3"/>
      <stop offset="100%" style="stop-color:#2196F3"/>
    </linearGradient>
    <linearGradient id="cloudGrad2" x1="0%" y1="0%" x2="0%" y2="100%">
      <stop offset="0%" style="stop-color:#90CAF9"/>
      <stop offset="100%" style="stop-color:#42A5F5"/>
    </linearGradient>
  </defs>
  <!-- Back cloud (smaller) -->
  <path d="M155 58c0-14.4 11.6-26 26-26 10.2 0 19 5.9 23.3 14.4C207.5 43.6 211.5 42 216 42c9.9 0 18 8.1 18 18 0 1-.1 2-.3 3h.3c8.8 0 16 7.2 16 16s-7.2 16-16 16h-60c-11 0-20-9-20-20 0-7.2 3.8-13.5 9.5-17h-8.5z" fill="url(#cloudGrad2)" opacity="0.7"/>
  <!-- Front cloud (larger) -->
  <path d="M120 72c0-17.7 14.3-32 32-32 12.5 0 23.4 7.2 28.6 17.7C184.4 54.3 189.3 52 195 52c12.2 0 22 9.8 22 22 0 1.2-.1 2.4-.3 3.6h.3c11 0 20 9 20 20s-9 20-20 20H140c-13.3 0-24-10.7-24-24 0-8.8 4.7-16.5 11.8-20.7-.5-1.6-.8-3.2-.8-4.9v4z" fill="url(#cloudGrad)"/>
  <!-- Text "CloudAge" -->
  <text x="50" y="145" font-family="Arial, Helvetica, sans-serif" font-weight="800" font-size="48" fill="#1565C0">Cloud</text>
  <text x="222" y="145" font-family="Arial, Helvetica, sans-serif" font-weight="800" font-size="48" fill="#1976D2">Age</text>
</svg>
